<svg xmlns="http://www.w3.org/2000/svg" version="1.1" xmlns:xlink="http://www.w3.org/1999/xlink" xmlns:svgjs="http://svgjs.dev/svgjs" width="1500" height="1500" viewBox="0 0 1500 1500"><rect width="1500" height="1500" fill="#000000"></rect><g transform="matrix(0.6666666666666666,0,0,0.6666666666666666,249.39393939393938,643.9879506245402)"><svg viewBox="0 0 396 84" data-background-color="#ffffff" preserveAspectRatio="xMidYMid meet" height="318" width="1500" xmlns="http://www.w3.org/2000/svg" xmlns:xlink="http://www.w3.org/1999/xlink"><g id="tight-bounds" transform="matrix(1,0,0,1,0.2400000000000091,0.004774280842553935)"><svg viewBox="0 0 395.52 83.9904514383149" height="83.9904514383149" width="395.52"><g><svg viewBox="0 0 555.4699070470642 117.95653381189761" height="83.9904514383149" width="395.52"><g transform="matrix(1,0,0,1,159.94990704706422,16.30224164838816)"><svg viewBox="0 0 395.52 85.35205051512129" height="85.35205051512129" width="395.52"><g id="textblocktransform"><svg viewBox="0 0 395.52 85.35205051512129" height="85.35205051512129" width="395.52" id="textblock"><g><svg viewBox="0 0 395.52 85.35205051512129" height="85.35205051512129" width="395.52"><g transform="matrix(1,0,0,1,0,0)"><svg width="395.52" viewBox="3.13 -38.16 220.36 47.56" height="85.35205051512129" data-palette-color="#0b82e6"><g class="wordmark-text-0" data-fill-palette-color="primary" id="text-0"><path d="M23.8-30.66L23.8-30.66 23.34-23.49 23.17-23.44Q21.36-26.15 17.02-26.95L17.02-26.95Q15.65-27.22 14.39-27.22 13.13-27.22 12.24-27 11.35-26.78 10.72-26.37L10.72-26.37Q9.38-25.49 9.38-24.07L9.38-24.07Q9.38-22.22 10.55-21.29L10.55-21.29Q12.01-20.17 15.41-19.71 18.8-19.26 20.85-18.48 22.9-17.7 24.22-16.5L24.22-16.5Q26.71-14.26 26.71-10.16L26.71-10.16Q26.71-4.79 22.66-1.88L22.66-1.88Q19.19 0.61 13.92 0.61L13.92 0.61Q9.67 0.61 5.52-1L5.52-1Q4.15-1.54 3.13-2.25L3.13-2.25 3.39-10.4 3.49-10.47Q6.52-5.25 13.43-5.25L13.43-5.25Q18.33-5.25 19.92-7.62L19.92-7.62Q20.46-8.42 20.46-9.41 20.46-10.4 20.14-11.05 19.82-11.69 19.09-12.16L19.09-12.16Q17.68-13.09 14.33-13.4 10.99-13.72 8.86-14.6 6.74-15.48 5.47-16.77L5.47-16.77Q3.17-19.12 3.17-23.32L3.17-23.32Q3.17-27.66 6.23-30.35L6.23-30.35Q9.33-33.08 14.59-33.08 19.85-33.08 23.8-30.66ZM30.86-12.62L30.86-12.62Q30.86-15.31 31.77-17.76 32.69-20.21 34.4-22.05L34.4-22.05Q38.13-26 44.09-26L44.09-26Q50.02-26 53.51-22.27L53.51-22.27Q56.86-18.7 56.86-13.01L56.86-13.01Q56.86-7.32 53.42-3.59L53.42-3.59Q49.78 0.37 43.77 0.37L43.77 0.37Q37.57 0.37 34.06-3.52L34.06-3.52Q30.86-7.06 30.86-12.62ZM36.79-12.77L36.79-12.77Q36.79-11.23 37.3-9.79 37.81-8.35 38.77-7.32L38.77-7.32Q40.79-5.1 44.09-5.1L44.09-5.1Q47.14-5.1 48.9-7.28L48.9-7.28Q50.61-9.38 50.61-12.74L50.61-12.74Q50.61-16.16 48.85-18.26L48.85-18.26Q46.97-20.51 43.7-20.51L43.7-20.51Q40.38-20.51 38.5-18.12L38.5-18.12Q36.79-15.92 36.79-12.77ZM81.32-8.33L81.88-2.37Q79.15 0.37 73.31 0.37L73.31 0.37Q67.65 0.37 64.06-3.08L64.06-3.08Q60.42-6.57 60.42-12.35L60.42-12.35Q60.42-18.24 64.01-22.02L64.01-22.02Q67.82-26 74.19-26L74.19-26Q78.71-26 81.76-24.02L81.76-24.02 80.78-17.77 80.61-17.8Q79.44-19.21 78.14-19.65L78.14-19.65Q76.04-20.39 73.95-20.39 71.85-20.39 70.65-19.85 69.45-19.31 68.6-18.36L68.6-18.36Q66.89-16.41 66.89-13.18L66.89-13.18Q66.89-7.47 70.84-5.71L70.84-5.71Q72.21-5.13 73.74-5.13 75.26-5.13 76.4-5.4 77.53-5.66 78.46-6.13L78.46-6.13Q80.44-7.1 81.15-8.4L81.15-8.4 81.32-8.33ZM91.69-28.83L86.2-32.79Q88.15-35.84 90.28-38.16L90.28-38.16 95.52-34.03Q94.47-32.74 93.57-31.49L93.57-31.49Q93.57-31.49 91.69-28.83L91.69-28.83ZM92.62-25.51L92.62-2.73Q92.62-0.63 92.72 0L92.72 0 86.52 0 86.52-25.51 92.62-25.51ZM116.35-1.51L116.35-1.51Q112.88 0.37 110.07 0.37 107.27 0.37 105.26-0.16 103.26-0.68 101.87-1.71L101.87-1.71Q99.04-3.78 99.04-7.71L99.04-7.71Q99.04-11.23 102.5-13.57L102.5-13.57Q106.26-16.11 112.71-16.11L112.71-16.11 113.69-16.09Q113.98-16.06 114.35-16.05 114.71-16.04 115-15.99L115-15.99Q114.81-19.9 111.64-20.56L111.64-20.56Q110.59-20.78 109.4-20.78 108.22-20.78 107.08-20.57 105.95-20.36 104.87-20.02L104.87-20.02Q102.5-19.26 101.48-18.29L101.48-18.29 101.41-18.33 100.67-23.73Q104.99-26 110.12-26L110.12-26Q118.08-26 120.3-20.26L120.3-20.26Q121.01-18.43 121.01-16.14L121.01-16.14 121.01-7.3Q121.01-4.47 123.01-3.44L123.01-3.44 118.59 0.61Q117.2-0.12 116.35-1.51ZM115.03-6.49L115.03-11.6Q114.37-11.72 113.66-11.72L113.66-11.72 112.69-11.72Q107.29-11.72 105.82-9.33L105.82-9.33Q105.39-8.62 105.39-7.84 105.39-7.06 105.67-6.46 105.95-5.86 106.61-5.47L106.61-5.47Q107.88-4.74 110.38-4.74 112.88-4.74 115.05-5.93L115.05-5.93Q115.03-6.2 115.03-6.49L115.03-6.49ZM134.29-36.38L134.29-2.73Q134.29-0.63 134.39 0L134.39 0 128.19 0 128.19-36.38 134.29-36.38ZM146.42-7.03L144.13 0.2Q142.03 0 139.22 0L139.22 0 137.29 0 147.91-29.76Q148.62-31.76 148.62-32.09 148.62-32.42 148.59-32.5L148.59-32.5 148.62-32.54Q150.2-32.47 151.99-32.47L151.99-32.47Q153.45-32.47 155.5-32.52L155.5-32.52 155.53-32.47Q155.48-32.37 155.48-32.2L155.48-32.2Q155.48-31.74 156.21-29.74L156.21-29.74 167.05 0.07Q166.56 0.05 165.9 0.05L165.9 0.05Q165.9 0.05 164.63 0L164.63 0Q164.02 0 163.53 0L163.53 0 159.75 0 157.46-7.03 146.42-7.03ZM148.28-12.89L155.55-12.89 151.86-24.24 148.28-12.89ZM176.72-0.51L176.72-0.51 176.72 6.67Q176.72 8.76 176.81 9.4L176.81 9.4 170.73 9.4 170.73-25.51 176.72-25.51 176.72-23.93Q179.67-26 182.38-26 185.09-26 187.19-25.24 189.29-24.49 190.88-22.9L190.88-22.9Q194.37-19.46 194.37-13.09L194.37-13.09Q194.37-8.86 192.39-5.54L192.39-5.54Q190.71-2.73 187.73-1.05L187.73-1.05Q185.09 0.44 182.01 0.44 178.94 0.44 176.72-0.51ZM176.72-18.43L176.72-6.67Q178.57-5.1 181.53-5.1L181.53-5.1Q186.36-5.1 187.78-9.77L187.78-9.77Q188.26-11.35 188.26-13.17 188.26-14.99 187.92-16.08 187.58-17.16 187.03-17.96 186.48-18.75 185.8-19.27 185.11-19.8 184.41-20.12L184.41-20.12Q183.16-20.68 181.84-20.68 180.52-20.68 179.11-20.07 177.69-19.46 176.72-18.43L176.72-18.43ZM205.84-0.51L205.84-0.51 205.84 6.67Q205.84 8.76 205.94 9.4L205.94 9.4 199.86 9.4 199.86-25.51 205.84-25.51 205.84-23.93Q208.79-26 211.5-26 214.21-26 216.31-25.24 218.41-24.49 220-22.9L220-22.9Q223.49-19.46 223.49-13.09L223.49-13.09Q223.49-8.86 221.51-5.54L221.51-5.54Q219.83-2.73 216.85-1.05L216.85-1.05Q214.21 0.44 211.14 0.44 208.06 0.44 205.84-0.51ZM205.84-18.43L205.84-6.67Q207.69-5.1 210.65-5.1L210.65-5.1Q215.48-5.1 216.9-9.77L216.9-9.77Q217.39-11.35 217.39-13.17 217.39-14.99 217.05-16.08 216.7-17.16 216.15-17.96 215.61-18.75 214.92-19.27 214.24-19.8 213.53-20.12L213.53-20.12Q212.28-20.68 210.97-20.68 209.65-20.68 208.23-20.07 206.82-19.46 205.84-18.43L205.84-18.43Z" fill="#ffffff" data-fill-palette-color="primary"></path></g></svg></g></svg></g></svg></g></svg></g><g><svg viewBox="0 0 139.80033636965643 117.95653381189761" height="117.95653381189761" width="139.80033636965643"><g><svg xmlns="http://www.w3.org/2000/svg" xmlns:xlink="http://www.w3.org/1999/xlink" version="1.1" x="0" y="0" viewBox="0 10 128 108" style="enable-background:new 0 0 128 128;" xml:space="preserve" height="117.95653381189761" width="139.80033636965643" class="icon-icon-0" data-fill-palette-color="accent" id="icon-0"><g fill="#c245d5" data-fill-palette-color="accent"><path d="M7.447 37.837h7.447c0 0 1.143 2.36 2.553 4.07C18.152 42.764 19.076 43.191 20 43.191c0.924 0 1.848-0.428 2.553-1.284l2.553-4.07c0 0 3.334 0 7.447 0C36.666 37.837 40 34.366 40 30.085V17.752C40 13.47 36.418 10 32 10H8C3.582 10 0 13.47 0 17.752v12.333C0 34.366 3.334 37.837 7.447 37.837zM4 17.752C4 15.684 5.794 14 8 14h24c2.206 0 4 1.684 4 3.752v12.333c0 2.069-1.547 3.752-3.447 3.752h-7.447c-1.377 0-2.656 0.708-3.388 1.874l-1.785 2.846c-0.662-0.969-1.236-2.048-1.44-2.464-0.668-1.38-2.066-2.256-3.599-2.256H7.447C5.547 33.837 4 32.154 4 30.085V17.752z" fill="#ffffff" data-fill-palette-color="accent"></path><path d="M12.334 21.908h15.332c1.104 0 2-0.896 2-2s-0.896-2-2-2H12.334c-1.105 0-2 0.896-2 2S11.229 21.908 12.334 21.908z" fill="#ffffff" data-fill-palette-color="accent"></path><path d="M12.334 29.835h15.332c1.104 0 2-0.895 2-2 0-1.104-0.896-2-2-2H12.334c-1.105 0-2 0.896-2 2C10.334 28.94 11.229 29.835 12.334 29.835z" fill="#ffffff" data-fill-palette-color="accent"></path><path d="M51.447 37.837h7.447c0 0 1.143 2.36 2.553 4.07C62.152 42.764 63.076 43.191 64 43.191c0.924 0 1.848-0.428 2.553-1.284l2.553-4.07c0 0 3.334 0 7.447 0C80.666 37.837 84 34.366 84 30.085V17.752C84 13.47 80.418 10 76 10H52c-4.418 0-8 3.47-8 7.752v12.333C44 34.366 47.334 37.837 51.447 37.837zM48 17.752C48 15.684 49.794 14 52 14h24c2.206 0 4 1.684 4 3.752v12.333c0 2.069-1.547 3.752-3.447 3.752h-7.447c-1.377 0-2.656 0.708-3.388 1.874l-1.785 2.846c-0.662-0.969-1.236-2.048-1.44-2.464-0.668-1.38-2.066-2.256-3.599-2.256h-7.447C49.547 33.837 48 32.154 48 30.085V17.752z" fill="#ffffff" data-fill-palette-color="accent"></path><path d="M56.334 21.908h15.332c1.104 0 2-0.896 2-2s-0.896-2-2-2H56.334c-1.105 0-2 0.896-2 2S55.229 21.908 56.334 21.908z" fill="#ffffff" data-fill-palette-color="accent"></path><path d="M56.334 29.835h15.332c1.104 0 2-0.895 2-2 0-1.104-0.896-2-2-2H56.334c-1.105 0-2 0.896-2 2C54.334 28.94 55.229 29.835 56.334 29.835z" fill="#ffffff" data-fill-palette-color="accent"></path><path d="M120 10H96c-4.418 0-8 3.47-8 7.752v12.333c0 4.281 3.334 7.752 7.447 7.752h7.447c0 0 1.144 2.36 2.553 4.07 0.705 0.856 1.629 1.284 2.553 1.284 0.924 0 1.848-0.428 2.553-1.284l2.553-4.07c0 0 3.334 0 7.447 0 4.113 0 7.447-3.471 7.447-7.752V17.752C128 13.47 124.418 10 120 10zM124 30.085c0 2.069-1.547 3.752-3.447 3.752h-7.447c-1.377 0-2.656 0.708-3.388 1.874l-1.785 2.846c-0.662-0.969-1.236-2.048-1.44-2.464-0.668-1.38-2.066-2.256-3.599-2.256h-7.447C93.547 33.837 92 32.154 92 30.085V17.752C92 15.684 93.794 14 96 14h24c2.206 0 4 1.684 4 3.752V30.085z" fill="#ffffff" data-fill-palette-color="accent"></path><path d="M115.666 17.908h-15.332c-1.105 0-2 0.896-2 2s0.895 2 2 2h15.332c1.104 0 2-0.896 2-2S116.77 17.908 115.666 17.908z" fill="#ffffff" data-fill-palette-color="accent"></path><path d="M115.666 25.835h-15.332c-1.105 0-2 0.896-2 2 0 1.105 0.895 2 2 2h15.332c1.104 0 2-0.895 2-2C117.666 26.73 116.77 25.835 115.666 25.835z" fill="#ffffff" data-fill-palette-color="accent"></path><path d="M114.425 84.465c-0.943 1.163-2.048 2.187-3.276 3.046C118.058 89.931 124 95.888 124 103.631v10.173C124 113.919 123.916 114 123.84 114H80.16C80.084 114 80 113.919 80 113.804v-10.173c0-7.743 5.943-13.7 12.852-16.119-1.229-0.86-2.333-1.884-3.276-3.046C81.905 87.839 76 94.922 76 103.631v10.173C76 116.119 77.863 118 80.16 118h43.68C126.137 118 128 116.119 128 113.804v-10.173C128 94.922 122.095 87.838 114.425 84.465z" fill="#ffffff" data-fill-palette-color="accent"></path><path d="M102 86.294c6.627 0 12-5.324 12-11.891 0-6.565-5.373-11.89-12-11.889s-12 5.324-12 11.889C90 80.97 95.373 86.294 102 86.294zM102 66.514c4.411 0 8 3.539 8 7.889s-3.589 7.891-8 7.891c-4.411 0-8-3.54-8-7.891S97.589 66.514 102 66.514z" fill="#ffffff" data-fill-palette-color="accent"></path><path d="M52 59.541c0 6.566 5.373 11.891 12 11.891s12-5.324 12-11.891c0-6.565-5.373-11.89-12-11.89S52 52.976 52 59.541zM72 59.541c0 4.351-3.589 7.891-8 7.891-4.411 0-8-3.54-8-7.891s3.589-7.89 8-7.89C68.411 51.651 72 55.19 72 59.541z" fill="#ffffff" data-fill-palette-color="accent"></path><path d="M38.425 84.465c-0.943 1.163-2.048 2.187-3.276 3.046C42.058 89.931 48 95.888 48 103.631v10.173C48 113.919 47.916 114 47.84 114H4.16C4.084 114 4 113.919 4 113.804v-10.173c0-7.743 5.943-13.7 12.852-16.119-1.229-0.86-2.333-1.884-3.276-3.046C5.905 87.839 0 94.922 0 103.631v10.173C0 116.119 1.863 118 4.16 118h43.68C50.137 118 52 116.119 52 113.804v-10.173C52 94.922 46.095 87.838 38.425 84.465z" fill="#ffffff" data-fill-palette-color="accent"></path><path d="M26 62.514c-6.627 0-12 5.324-12 11.889 0 6.566 5.373 11.891 12 11.891s12-5.324 12-11.891C38 67.838 32.627 62.514 26 62.514zM26 82.294c-4.411 0-8-3.54-8-7.891s3.589-7.89 8-7.889c4.411 0 8 3.539 8 7.889S30.411 82.294 26 82.294z" fill="#ffffff" data-fill-palette-color="accent"></path><path d="M51.576 69.604c-5.089 2.237-9.389 6.115-11.715 11.009 1.225 0.534 2.415 1.152 3.561 1.848 2.162-4.623 6.55-8.104 11.43-9.813C53.624 71.789 52.519 70.766 51.576 69.604z" fill="#ffffff" data-fill-palette-color="accent"></path><path d="M55.996 114c-0.012 1.454-0.401 2.817-1.071 4h18.151c-0.67-1.183-1.061-2.546-1.072-4H55.996z" fill="#ffffff" data-fill-palette-color="accent"></path><path d="M84.578 82.461c1.146-0.695 2.336-1.313 3.561-1.848-2.326-4.896-6.626-8.772-11.715-11.01-0.943 1.162-2.047 2.186-3.276 3.045C78.028 74.357 82.416 77.838 84.578 82.461z" fill="#ffffff" data-fill-palette-color="accent"></path></g></svg></g></svg></g></svg></g><defs></defs></svg><rect width="395.52" height="83.9904514383149" fill="none" stroke="none" visibility="hidden"></rect></g></svg></g></svg>